<svg width="20" height="20" viewBox="0 0 20 20" fill="none" xmlns="http://www.w3.org/2000/svg">
<path d="M5.83337 1.66666C5.17033 1.66666 4.53445 1.93005 4.06561 2.39889C3.59677 2.86773 3.33337 3.50362 3.33337 4.16666V15.8333C3.33337 16.4964 3.59677 17.1322 4.06561 17.6011C4.53445 18.0699 5.17033 18.3333 5.83337 18.3333H14.1667C14.8297 18.3333 15.4656 18.0699 15.9345 17.6011C16.4033 17.1322 16.6667 16.4964 16.6667 15.8333V15C16.6667 14.5398 16.2936 14.1667 15.8334 14.1667C15.3731 14.1667 15 14.5398 15 15V15.8333C15 16.0543 14.9122 16.2663 14.756 16.4226C14.5997 16.5789 14.3877 16.6667 14.1667 16.6667H5.83337C5.61236 16.6667 5.4004 16.5789 5.24412 16.4226C5.08784 16.2663 5.00004 16.0543 5.00004 15.8333V4.16666C5.00004 3.94564 5.08784 3.73368 5.24412 3.5774C5.4004 3.42112 5.61236 3.33332 5.83337 3.33332H14.1667C14.3877 3.33332 14.5997 3.42112 14.756 3.5774C14.9122 3.73368 15 3.94564 15 4.16666V4.99999C15 5.46023 15.3731 5.83332 15.8334 5.83332C16.2936 5.83332 16.6667 5.46023 16.6667 4.99999V4.16666C16.6667 3.50361 16.4033 2.86773 15.9345 2.39889C15.4656 1.93005 14.8297 1.66666 14.1667 1.66666H5.83337Z" fill="#CC8889"/>
<path d="M13.9226 6.91073C13.5972 6.5853 13.0696 6.5853 12.7441 6.91073C12.4187 7.23617 12.4187 7.76381 12.7441 8.08925L13.8215 9.16666H10C9.5398 9.16666 9.16671 9.53975 9.16671 9.99999C9.16671 10.4602 9.5398 10.8333 10 10.8333H13.8215L12.7441 11.9107C12.4187 12.2362 12.4187 12.7638 12.7441 13.0892C13.0696 13.4147 13.5972 13.4147 13.9226 13.0892L16.4226 10.5892C16.7481 10.2638 16.7481 9.73617 16.4226 9.41073L13.9226 6.91073Z" fill="#CC8889"/>
</svg>
