<svg width="20" height="20" viewBox="0 0 20 20" fill="none" xmlns="http://www.w3.org/2000/svg">
<path d="M6.66667 7.5C6.20643 7.5 5.83333 7.87309 5.83333 8.33333C5.83333 8.79357 6.20643 9.16666 6.66667 9.16666H13.3333C13.7936 9.16666 14.1667 8.79357 14.1667 8.33333C14.1667 7.87309 13.7936 7.5 13.3333 7.5H6.66667Z" fill="white" fill-opacity="0.8"/>
<path d="M6.66667 10.8333C6.20643 10.8333 5.83333 11.2064 5.83333 11.6667C5.83333 12.1269 6.20643 12.5 6.66667 12.5H10C10.4602 12.5 10.8333 12.1269 10.8333 11.6667C10.8333 11.2064 10.4602 10.8333 10 10.8333H6.66667Z" fill="white" fill-opacity="0.8"/>
<path d="M6.66667 14.1667C6.20643 14.1667 5.83333 14.5398 5.83333 15C5.83333 15.4602 6.20643 15.8333 6.66667 15.8333H13.3333C13.7936 15.8333 14.1667 15.4602 14.1667 15C14.1667 14.5398 13.7936 14.1667 13.3333 14.1667H6.66667Z" fill="white" fill-opacity="0.8"/>
<path fill-rule="evenodd" clip-rule="evenodd" d="M17.399 4.28132C17.3319 4.11901 17.2335 3.97155 17.1093 3.84741L14.4863 1.22444C14.2365 0.97432 13.8976 0.83364 13.5441 0.833328H3.83333C3.47971 0.833328 3.14057 0.973804 2.89052 1.22385C2.64048 1.4739 2.5 1.81304 2.5 2.16666V17.8333C2.5 18.0084 2.53449 18.1818 2.60149 18.3436C2.6685 18.5053 2.76671 18.6523 2.89052 18.7761C3.01433 18.8999 3.16132 18.9982 3.32309 19.0652C3.48486 19.1322 3.65824 19.1667 3.83333 19.1667H16.1667C16.3418 19.1667 16.5151 19.1322 16.6769 19.0652C16.8387 18.9982 16.9857 18.9 17.1095 18.7761C17.2333 18.6523 17.3315 18.5053 17.3985 18.3436C17.4655 18.1818 17.5 18.0084 17.5 17.8333V4.79192L16.6667 4.79166L17.5 4.7937L17.5 4.79192C17.5002 4.61674 17.4659 4.44323 17.399 4.28132ZM12.5 4.58333C12.5 5.27368 13.0596 5.83333 13.75 5.83333H15.8333V17.5H4.16667V2.49999H12.5V4.58333ZM15.0715 4.16666L14.1667 3.26184V4.16666H15.0715Z" fill="white" fill-opacity="0.8"/>
</svg>
