<svg width="20" height="20" viewBox="0 0 20 20" fill="none" xmlns="http://www.w3.org/2000/svg">
<g clip-path="url(#clip0_1255_236)">
<path fill-rule="evenodd" clip-rule="evenodd" d="M10 6.66667C9.11599 6.66667 8.26814 7.01785 7.64302 7.64298C7.0179 8.2681 6.66671 9.11594 6.66671 10C6.66671 10.8841 7.0179 11.7319 7.64302 12.357C8.26814 12.9821 9.11599 13.3333 10 13.3333C10.8841 13.3333 11.7319 12.9821 12.3571 12.357C12.9822 11.7319 13.3334 10.8841 13.3334 10C13.3334 9.11594 12.9822 8.2681 12.3571 7.64298C11.7319 7.01785 10.8841 6.66667 10 6.66667ZM8.82153 8.82149C9.13409 8.50893 9.55801 8.33333 10 8.33333C10.4421 8.33333 10.866 8.50893 11.1786 8.82149C11.4911 9.13405 11.6667 9.55797 11.6667 10C11.6667 10.442 11.4911 10.8659 11.1786 11.1785C10.866 11.4911 10.4421 11.6667 10 11.6667C9.55801 11.6667 9.13409 11.4911 8.82153 11.1785C8.50897 10.8659 8.33337 10.442 8.33337 10C8.33337 9.55797 8.50897 9.13405 8.82153 8.82149Z" fill="white" fill-opacity="0.5"/>
<path fill-rule="evenodd" clip-rule="evenodd" d="M9.15087 0.833333C8.77233 0.833333 8.44135 1.08847 8.34499 1.45454L7.92269 3.05887L6.58099 3.62447L5.55395 2.71073C5.22419 2.41736 4.72288 2.43198 4.41078 2.74408L2.74412 4.41074C2.4422 4.71266 2.41733 5.19394 2.68651 5.52537L3.58662 6.63363L3.03466 7.99156L1.47725 8.35515C1.10014 8.44319 0.833374 8.77941 0.833374 9.16667V10.8333C0.833374 11.2091 1.08486 11.5384 1.44739 11.6373L3.05712 12.0764L3.62424 13.4218L2.71142 14.4454C2.41741 14.7751 2.43176 15.2769 2.74412 15.5893L4.41078 17.2559C4.71311 17.5582 5.19519 17.5827 5.52658 17.3126L6.63444 16.4095L7.959 16.9543L8.35873 18.5374C8.45217 18.9074 8.78505 19.1667 9.16671 19.1667H10.8334C11.2149 19.1667 11.5477 18.9076 11.6412 18.5378L12.042 16.954L13.4108 16.3871C13.5486 16.5026 13.7066 16.6382 13.8638 16.7751C14.0201 16.9112 14.1653 17.0393 14.2715 17.1336C14.3246 17.1807 14.3678 17.2192 14.3977 17.2459L14.4429 17.2864C14.7725 17.582 15.2763 17.569 15.5893 17.2559L17.256 15.5893C17.5627 15.2825 17.5828 14.7918 17.3023 14.461L16.3945 13.3906L16.9562 12.0339L18.543 11.6215C18.9103 11.5261 19.1667 11.1945 19.1667 10.815V9.16667C19.1667 8.78557 18.9082 8.45302 18.5388 8.35906L16.9619 7.95787L16.4017 6.60445L17.3031 5.53796C17.5828 5.20708 17.5623 4.71709 17.256 4.41074L15.5893 2.74408C15.2817 2.43648 14.7893 2.41723 14.4586 2.69987L13.4 3.60473L11.9989 3.02866L11.5852 1.45481C11.4889 1.08861 11.1578 0.833333 10.7792 0.833333H9.15087ZM15.5347 14.9535L14.9646 15.5236L14.9583 15.5182C14.6506 15.2502 14.2541 14.9111 14.0305 14.7513C13.7965 14.584 13.4928 14.5492 13.227 14.6593L11.0178 15.5743C10.7747 15.675 10.5934 15.8846 10.5288 16.1397L10.1846 17.5H9.81577L9.47218 16.1393C9.40754 15.8833 9.22541 15.6731 8.98123 15.5727L6.80956 14.6793C6.52678 14.563 6.203 14.6109 5.966 14.8041L5.05699 15.5451L4.47913 14.9672L5.21866 14.138C5.43275 13.8979 5.48955 13.556 5.3646 13.2596L4.43543 11.0555C4.33602 10.8196 4.13376 10.6426 3.88686 10.5752L2.50004 10.1969V9.82786L3.83366 9.51651C4.09712 9.455 4.31433 9.26943 4.4162 9.01879L5.3162 6.80463C5.43067 6.52302 5.38271 6.20142 5.19107 5.96546L4.45397 5.05791L5.03344 4.47844L5.86613 5.21926C6.10619 5.43284 6.44766 5.48937 6.74375 5.36456L8.94791 4.43539C9.18615 4.33496 9.36428 4.12965 9.43009 3.87963L9.79324 2.5H10.1366L10.4924 3.85353C10.5588 4.10617 10.7399 4.31306 10.9815 4.4124L13.2373 5.3399C13.5265 5.45881 13.858 5.4058 14.0957 5.20263L14.9557 4.4675L15.5355 5.04734L14.8011 5.91621C14.5998 6.15431 14.5483 6.48484 14.6676 6.7729L15.5817 8.98124C15.6823 9.2241 15.8915 9.4053 16.1462 9.47011L17.5 9.81453V10.1705L16.1355 10.5251C15.8825 10.5908 15.6751 10.7714 15.5751 11.0129L14.6601 13.2229C14.5406 13.5114 14.5925 13.8425 14.7945 14.0806L15.5347 14.9535Z" fill="white" fill-opacity="0.5"/>
</g>
<defs>
<clipPath id="clip0_1255_236">
<rect width="20" height="20" fill="white"/>
</clipPath>
</defs>
</svg>
